<?xml version="1.0" encoding="UTF-8"?>
<svg xmlns="http://www.w3.org/2000/svg" xmlns:xlink="http://www.w3.org/1999/xlink" viewBox="0 0 329.95 185.6">
  <defs>
    <style>
      .cls-1 {
        isolation: isolate;
      }

      .cls-2 {
        fill: #fff;
      }

      .cls-2, .cls-3, .cls-4 {
        stroke-width: 0px;
      }

      .cls-5 {
        opacity: .3;
      }

      .cls-3 {
        fill: url(#linear-gradient);
        mix-blend-mode: screen;
      }

      .cls-4 {
        fill: #212121;
      }
    </style>
    <linearGradient id="linear-gradient" x1="309.83" y1="92.8" x2="19.81" y2="92.8" gradientUnits="userSpaceOnUse">
      <stop offset="0" stop-color="#1a1a1a"/>
      <stop offset=".25" stop-color="#0d0d0d"/>
      <stop offset=".58" stop-color="#030303"/>
      <stop offset="1" stop-color="#000"/>
    </linearGradient>
  </defs>
  <g class="cls-1">
    <g id="Layer_2" data-name="Layer 2">
      <g id="Layer_1-2" data-name="Layer 1">
        <g>
          <rect class="cls-4" width="329.95" height="185.6"/>
          <polygon class="cls-3" points="223.94 0 0 0 0 185.6 94.71 185.6 223.94 0"/>
          <g>
            <g class="cls-5">
              <path class="cls-2" d="m164.98,63c12.57,0,22.8,10.23,22.8,22.8s-10.23,22.8-22.8,22.8-22.8-10.23-22.8-22.8,10.23-22.8,22.8-22.8m0-2c-13.7,0-24.8,11.1-24.8,24.8s11.1,24.8,24.8,24.8,24.8-11.1,24.8-24.8-11.1-24.8-24.8-24.8h0Z"/>
            </g>
            <path class="cls-2" d="m178.05,85.81l-20.62-13.55c.03,20.43,0,10.4,0,27.1l20.62-13.55Z"/>
          </g>
        </g>
      </g>
    </g>
  </g>
</svg>