<?xml version="1.0" encoding="UTF-8"?>
<svg id="Layer_2" data-name="Layer 2" xmlns="http://www.w3.org/2000/svg" viewBox="0 0 476.73 546.12">
  <defs>
    <style>
      .cls-1 {
        fill: #aad4c8;
      }

      .cls-1, .cls-2, .cls-3 {
        stroke-width: 0px;
      }

      .cls-2 {
        fill: #82bfab;
      }

      .cls-3 {
        fill: #616e7d;
      }
    </style>
  </defs>
  <g id="Object">
    <g>
      <path class="cls-3" d="m391.32,439.95h-74.2c-3.07,0-6.07,1.24-8.24,3.41-2.17,2.17-3.43,5.17-3.43,8.25v71.19H23.32V23.32h368v195.4l23.32-26.51V11.66c0-3.07-1.25-6.07-3.41-8.25-2.17-2.17-5.18-3.41-8.25-3.41H11.66c-3.08,0-6.08,1.24-8.25,3.41C1.24,5.59,0,8.59,0,11.66v522.8c0,3.07,1.24,6.07,3.41,8.25,2.17,2.17,5.17,3.41,8.25,3.41h320.04c3.07,0,6.05-1.22,8.21-3.39l35.95-35.72.05-.05,35.33-35.47c2.17-2.18,3.4-5.16,3.4-8.23v-207.27l-23.32,26.51v157.44Zm-62.54,83.27v-59.95h62.11l-62.11,59.95Z"/>
      <rect class="cls-2" x="107.13" y="141.03" width="240.45" height="34.62"/>
      <rect class="cls-2" x="66.12" y="198.43" width="281.46" height="34.62"/>
      <polygon class="cls-2" points="66.12 255.83 66.12 290.46 328.2 290.46 347.58 268.43 347.58 255.83 66.12 255.83"/>
      <path class="cls-2" d="m66.12,313.24v34.62h140.96l-8.39-9.14-10.32-11.25c-1.72-1.89-2.02-4.68-.71-6.88,1.06-1.79,2.97-2.85,4.99-2.85l1.39.17,53.52,13.18c1.11.28,2.11.87,2.88,1.72l13.82,15.05h13.43l29.89-33.96v-.66H66.12Z"/>
      <path class="cls-1" d="m474.75,178.9l-22.91-20.17c-1.06-.94-2.42-1.45-3.83-1.45h-.37c-1.54.11-2.98.81-3.99,1.97l-29.01,32.97-23.32,26.51-43.74,49.71-19.37,22.02-20.63,23.44-29.89,33.96-6.57,7.47-6.86-7.47-13.82-15.05c-.77-.84-1.77-1.44-2.88-1.72l-53.52-13.18-1.39-.17c-2.02,0-3.93,1.06-4.99,2.85-1.31,2.2-1.02,5,.71,6.88l10.32,11.25,8.39,9.14,48.85,53.23c3.98,4.34,9.64,6.83,15.53,6.83,6.18-.06,11.86-2.66,15.81-7.15l104.05-118.26,23.32-26.51,60.64-68.91c2.12-2.4,1.89-6.07-.53-8.19Z"/>
    </g>
  </g>
</svg>