<?xml version="1.0" encoding="UTF-8"?>
<svg id="Layer_2" data-name="Layer 2" xmlns="http://www.w3.org/2000/svg" viewBox="0 0 159.07 159.07">
  <defs>
    <style>
      .cls-1 {
        isolation: isolate;
        opacity: .3;
      }

      .cls-1, .cls-2, .cls-3, .cls-4, .cls-5, .cls-6 {
        stroke-width: 0px;
      }

      .cls-1, .cls-6 {
        fill: #6e7174;
      }

      .cls-2 {
        fill: #dedfe0;
      }

      .cls-3 {
        fill: #f4f4f4;
      }

      .cls-4 {
        fill: #555a5e;
      }

      .cls-5 {
        fill: #d2d4da;
      }
    </style>
  </defs>
  <g id="Layer_1-2" data-name="Layer 1">
    <g>
      <path class="cls-2" d="m159.07,79.53c0,21.44-8.49,40.91-22.28,55.21-14.47,15-34.77,24.33-57.25,24.33s-42.79-9.33-57.25-24.33C8.48,120.44,0,100.97,0,79.53,0,35.61,35.61,0,79.54,0c43.93,0,79.53,35.61,79.53,79.53Z"/>
      <path class="cls-3" d="m136.79,134.74c-4.99,5.17-10.68,9.67-16.9,13.33-.17.1-.35.21-.53.31-.73.43-1.47.84-2.22,1.24-.09.05-.18.1-.27.14-.66.36-1.32.7-1.99,1.03-.06.03-.13.06-.19.09-.78.39-1.57.76-2.36,1.12-.05.02-.09.04-.13.06-.65.29-1.3.58-1.96.85-1.38.58-2.79,1.12-4.21,1.63-.82.29-1.65.57-2.49.83-.86.27-1.72.53-2.59.77-.43.12-.86.24-1.3.35-.8.21-1.61.41-2.42.59-.56.13-1.14.25-1.7.37-.18.03-.35.07-.53.1-.04.01-.08.02-.11.03h0c-.12.02-.24.05-.35.06-.12.03-.24.05-.36.07-.21.04-.41.08-.62.11h0c-.39.08-.78.15-1.17.21-.05.01-.1.02-.15.02-.74.12-1.48.23-2.22.33-.36.04-.72.09-1.08.13-.29.04-.59.07-.89.1-.11.01-.23.02-.35.04-.17.01-.34.03-.51.05-.74.07-1.48.13-2.23.18-.45.03-.89.06-1.34.08-.06,0-.11,0-.17.01-.77.03-1.54.06-2.32.07-.52.01-1.05.02-1.57.02-1,0-1.99-.02-2.98-.06-.32-.01-.64-.02-.96-.04-1.39-.06-2.76-.17-4.12-.3-1.54-.16-3.07-.36-4.59-.6-.51-.08-1.01-.17-1.52-.26-.12-.02-.24-.04-.36-.07-.23-.04-.45-.08-.68-.12-.23-.05-.45-.09-.68-.14-1.36-.27-2.71-.59-4.05-.94-.35-.08-.69-.17-1.02-.27-.49-.13-.97-.27-1.45-.41-.34-.1-.67-.2-1-.3-.49-.14-.97-.3-1.45-.46-.24-.08-.48-.16-.73-.24-.56-.19-1.12-.38-1.68-.59-.8-.29-1.59-.59-2.37-.91-.76-.31-1.52-.62-2.27-.95-.8-.35-1.59-.71-2.36-1.09-.76-.36-1.52-.73-2.26-1.12-.75-.38-1.49-.78-2.22-1.19-.53-.3-1.05-.6-1.57-.9-6.24-3.69-11.95-8.19-16.93-13.37l1.37-5.39c2.06-8.12,8.46-14.42,16.6-16.37l2.51-.6,1.69-.4,6.1-1.46.99-.23.98-.24,1.1-.26.25-.06c1.16-.27,2.27-.67,3.32-1.18,1.81-.86,3.43-2.05,4.79-3.49.86-.89,1.61-1.88,2.24-2.96.8-1.32,1.41-2.77,1.8-4.31l1.06-4.13.29-1.11v-.06s.02-.02.02-.02l.82-3.18h0s.53-2.07.53-2.07l.41-1.57h20.75l.93,3.63.61,2.37.14.54.08.3.02.05v.02l.29,1.12,1.05,4.11c.4,1.54,1,2.99,1.79,4.31,1.68,2.81,4.15,5.08,7.13,6.49,0,.01.02.02.03.02h0s.07.03.1.04c.99.46,2.03.82,3.1,1.08l1.34.32.07.02.47.11.54.13.45.11.54.13,7.18,1.71.58.14,2.45.58c8.14,1.95,14.54,8.25,16.6,16.37l1.38,5.4Z"/>
      <path class="cls-6" d="m136.79,134.74c-4.99,5.17-10.68,9.67-16.9,13.33-.17.1-.35.21-.53.31-.73.43-1.47.84-2.22,1.24-.09.05-.18.1-.27.14-.66.36-1.32.7-1.99,1.03-.06.03-.13.06-.19.09-.78.39-1.57.76-2.36,1.12-.05.02-.09.04-.13.06-.65.29-1.3.58-1.96.85-1.38.58-2.79,1.12-4.21,1.63-.81.29-1.64.57-2.47.82t-.02.01c-.86.27-1.72.53-2.59.77-.43.12-.86.24-1.3.35-.8.21-1.61.41-2.42.59-.56.13-1.14.25-1.7.37-.18.03-.35.07-.53.1-.04.01-.08.02-.11.03h0c-.12.02-.24.05-.35.06-.12.03-.24.05-.36.07-.21.04-.41.08-.62.11h0c-.39.08-.78.15-1.17.21-.05.01-.1.02-.15.02-.74.12-1.48.23-2.22.33-.36.04-.72.09-1.08.13-.29.04-.59.07-.89.1-.11.01-.23.02-.35.04-.17.01-.34.03-.51.05-.74.07-1.48.13-2.23.18-.45.03-.89.06-1.34.08-.06,0-.11,0-.17.01-.77.03-1.54.06-2.32.07-.52.01-1.05.02-1.57.02h0c-1,0-1.98-.02-2.97-.06-.32-.01-.64-.02-.96-.04-1.39-.06-2.76-.17-4.12-.3-1.54-.16-3.07-.36-4.59-.6-.51-.08-1.01-.17-1.52-.26-.12-.02-.24-.04-.36-.07-.23-.04-.45-.08-.68-.12-.23-.05-.45-.09-.68-.14-1.36-.27-2.71-.59-4.05-.94-.35-.08-.69-.17-1.02-.27-.49-.13-.97-.27-1.45-.41-.34-.1-.67-.2-1-.3-.49-.14-.97-.3-1.45-.46-.24-.08-.48-.16-.73-.24-.56-.19-1.12-.38-1.68-.59-.8-.29-1.59-.59-2.37-.91-.76-.31-1.52-.62-2.27-.95-.8-.35-1.59-.71-2.36-1.09-.76-.36-1.52-.73-2.26-1.12-.75-.38-1.49-.78-2.22-1.19-.53-.3-1.05-.6-1.57-.9-6.24-3.69-11.95-8.19-16.93-13.37l1.37-5.39c2.06-8.12,8.46-14.42,16.6-16.37l2.51-.6,1.69-.4,6.1-1.46.99-.23.98-.24,1.1-.26.25-.06c1.16-.27,2.27-.67,3.32-1.18,1.81-.86,3.43-2.05,4.79-3.49.86-.89,1.61-1.88,2.24-2.96h30.59c1.68,2.81,4.15,5.08,7.13,6.49,0,.01.02.02.03.02h0s.07.03.1.04c.99.46,2.03.82,3.1,1.08l1.34.32.07.02.47.11.54.13.45.11.54.13,7.18,1.71.58.14,2.45.58c8.14,1.95,14.54,8.25,16.6,16.37l1.38,5.4Z"/>
      <g>
        <polygon class="cls-4" points="118.81 112.97 79.63 134.29 71.77 130.03 40.26 112.97 55.7 51.89 79.63 43.31 103.37 51.67 118.81 112.97"/>
        <polygon class="cls-1" points="79.63 113.19 79.63 134.29 71.77 130.03 79.63 113.19"/>
      </g>
      <path class="cls-3" d="m103.56,54.7c0,.88-.05,1.75-.14,2.6-.06.6-.27,2.61-.64,5.38,0,.11-.02.22-.04.34v.04c-.15,1.06-.32,2.22-.5,3.45-1.23,8.05-3.41,18.85-6.6,22.03-2.64,2.65-4.77,5.04-7.18,6.78-2.42,1.74-5.13,2.81-8.93,2.81h0c-7.59,0-10.82-4.31-16.1-9.59-2.64-2.64-4.59-10.49-5.89-17.68-.06-.34-.12-.69-.17-1.02-.18-1.07-.35-2.13-.51-3.14-.2-1.3-.37-2.54-.53-3.66-.47-3.5-.7-5.91-.7-5.91-.08-.8-.12-1.61-.12-2.43,0-.21,0-.42.01-.63.05-1.89.31-3.73.77-5.49.02-.08.05-.16.07-.24,2.67-9.76,11.34-17.04,21.8-17.63.46-.03.91-.04,1.37-.04h0c13.27,0,24.03,10.76,24.03,24.03Z"/>
      <path class="cls-2" d="m83.41,78.32c0,1.66-1.69,3-3.78,3s-3.77-1.34-3.77-3c0-.2.02-.4.08-.58.33,1.38,1.86,2.42,3.69,2.42s3.37-1.04,3.7-2.42c.06.19.08.38.08.58Z"/>
      <g>
        <path class="cls-5" d="m76.66,68.33c-.97-3.77-4.39-6.56-8.46-6.56-3.39,0-6.35,1.94-7.8,4.77-.61,1.19-.95,2.54-.95,3.97,0,1.64.45,3.17,1.24,4.48,1.53,2.56,4.33,4.27,7.51,4.27,4.82,0,8.74-3.93,8.74-8.75,0-.75-.1-1.48-.28-2.18Zm-8.46,9.93c-2.92,0-5.48-1.63-6.79-4.03-.61-1.1-.96-2.37-.96-3.72,0-1.11.23-2.16.66-3.11,1.2-2.73,3.93-4.63,7.09-4.63,4.27,0,7.74,3.47,7.74,7.74,0,4.27-3.47,7.75-7.74,7.75Z"/>
        <path class="cls-5" d="m98.8,66.39c-1.48-2.74-4.39-4.62-7.72-4.62-4.07,0-7.49,2.79-8.46,6.56-.18.7-.28,1.43-.28,2.18,0,4.82,3.92,8.75,8.74,8.75,3.13,0,5.89-1.66,7.43-4.15.84-1.34,1.32-2.91,1.32-4.6,0-1.49-.37-2.89-1.03-4.12Zm-1.01,7.99c-1.34,2.32-3.85,3.88-6.71,3.88-4.27,0-7.74-3.48-7.74-7.75s3.47-7.74,7.74-7.74c3.1,0,5.78,1.83,7.01,4.46.48.99.74,2.11.74,3.28,0,1.41-.38,2.73-1.04,3.87Z"/>
        <path class="cls-5" d="m83.34,70.52h-1c0-1.49-1.21-2.7-2.7-2.7s-2.7,1.21-2.7,2.7h-1c0-2.04,1.66-3.7,3.7-3.7s3.7,1.66,3.7,3.7Z"/>
      </g>
      <path class="cls-4" d="m103.56,54.7c0,.88-.05,1.75-.14,2.6-.06.6-.27,2.61-.64,5.38,0,.11-.02.22-.04.34v.04c-.15,1.06-.32,2.22-.5,3.45-.75-1.99-7.56-18.87-22.66-20.18-16.05,1.39-22.73,20.37-22.73,20.37-.2-1.3-.37-2.54-.53-3.66-.47-3.5-.7-5.91-.7-5.91-.08-.8-.12-1.61-.12-2.43,0-.21,0-.42.01-.63.05-1.89.31-3.73.77-5.49.02-.08.05-.16.07-.24,2.67-9.76,11.34-17.04,21.8-17.63.46-.03.91-.04,1.37-.04h0c13.27,0,24.03,10.76,24.03,24.03Z"/>
      <path class="cls-4" d="m103.56,111.68v43.68s0,.01-.02.01c-.86.27-1.72.53-2.59.77-.43.12-.86.24-1.3.35-.8.21-1.61.41-2.42.59-.56.13-1.14.25-1.7.37-.18.03-.35.07-.53.1-.04.01-.08.02-.11.03h0c-.12.02-.24.05-.35.06-.12.03-.24.05-.36.07-.21.04-.41.08-.62.11h0c-.39.08-.78.15-1.17.21-.05.01-.1.02-.15.02-.74.12-1.48.23-2.22.33-.36.04-.72.09-1.08.13-.29.04-.59.07-.89.1-.11.01-.23.02-.35.04-.17.01-.34.03-.51.05-.74.07-1.48.13-2.23.18-.45.03-.89.06-1.34.08-.06,0-.11,0-.17.01-.77.03-1.54.06-2.32.07-.52.01-1.05.02-1.57.02h0v-47.38h24.03Z"/>
    </g>
  </g>
</svg>