<?xml version="1.0" encoding="UTF-8"?>
<svg id="Layer_2" data-name="Layer 2" xmlns="http://www.w3.org/2000/svg" viewBox="0 0 159.07 159.07">
  <defs>
    <style>
      .cls-1, .cls-2 {
        fill: #dedfe0;
      }

      .cls-1, .cls-2, .cls-3, .cls-4, .cls-5, .cls-6 {
        stroke-width: 0px;
      }

      .cls-2 {
        isolation: isolate;
        opacity: .5;
      }

      .cls-3 {
        fill: #f4f4f4;
      }

      .cls-4 {
        fill: #555a5e;
      }

      .cls-5 {
        fill: #d2d4da;
      }

      .cls-6 {
        fill: #6e7174;
      }
    </style>
  </defs>
  <g id="Layer_1-2" data-name="Layer 1">
    <g>
      <path class="cls-1" d="m159.07,79.53c0,21.44-8.49,40.91-22.28,55.21-14.47,15-34.77,24.32-57.25,24.32s-42.79-9.33-57.25-24.33C8.48,120.44,0,100.97,0,79.53,0,35.61,35.61,0,79.54,0s79.53,35.61,79.53,79.53Z"/>
      <g>
        <path class="cls-3" d="m136.79,134.74c-14.47,15-34.77,24.32-57.25,24.32s-42.79-9.33-57.25-24.33l1.37-5.4c2.07-8.12,8.46-14.42,16.61-16.36l13.62-3.26c3.15-.75,5.95-2.4,8.11-4.67,1.92-2,3.33-4.49,4.04-7.27l1.06-4.13.29-1.11.02-.09,1.35-5.25.41-1.57h20.75l1.54,6,.14.54.08.3.02.07.29,1.12,1.06,4.11c1.53,5.92,6.2,10.52,12.15,11.94l13.62,3.26c8.14,1.95,14.54,8.25,16.6,16.36l1.37,5.4Z"/>
        <path class="cls-6" d="m136.79,134.75c-13.65,14.14-32.48,23.24-53.43,24.22-1.27.07-2.54.1-3.82.1-22.48,0-42.79-9.33-57.25-24.33l1.37-5.39c2.07-8.12,8.46-14.42,16.61-16.37l13.61-3.25c1.23-.29,2.41-.72,3.51-1.27,5.54,5.9,13.41,9.59,22.15,9.59s16.61-3.69,22.15-9.59c1.1.54,2.27.98,3.5,1.27l13.62,3.25c8.14,1.95,14.54,8.25,16.6,16.37l1.38,5.4Z"/>
        <path class="cls-5" d="m91.67,92.48c-1.76,7.73-6.52,13.27-12.13,13.27s-10.38-5.56-12.14-13.29l1.35-5.25.41-1.57h20.75l1.54,6,.14.54.08.3Z"/>
        <path class="cls-3" d="m56.33,63.07c-10.33-11.59-3.44,16.75,2.28,13.43,10.05-5.82-2.28-13.43-2.28-13.43Z"/>
        <path class="cls-3" d="m102.74,63.07c10.33-11.59,3.44,16.75-2.28,13.43-10.05-5.82,2.28-13.43,2.28-13.43Z"/>
        <path class="cls-4" d="m109.25,58.23c.02.38,0,.76-.12,1.12-.49,1.51-2.39,2.46-3.11,3.85-.72,1.42-.37,3.51-1.31,4.78-.93,1.29-3.02,1.59-4.15,2.71-1.12,1.12-1.42,3.21-2.71,4.15s-3.36.57-4.78,1.3c-1.41.73-2.34,2.62-3.86,3.11-1.49.49-3.36-.49-4.95-.24-1.32.21-2.58,1.33-3.92,1.66-.23.07-.48.1-.72.1-1.61,0-3.09-1.51-4.63-1.76-1.59-.25-3.46.73-4.95.24-1.52-.49-2.46-2.38-3.86-3.11-1.42-.73-3.5-.37-4.78-1.3s-1.59-3.02-2.71-4.15c-1.12-1.12-3.21-1.43-4.15-2.71-.92-1.27-.57-3.35-1.3-4.78-.72-1.4-2.61-2.34-3.11-3.86-.48-1.5.49-3.36.24-4.95-.24-1.54-1.75-3.01-1.75-4.63s1.51-3.09,1.75-4.64c.25-1.58-.72-3.45-.24-4.95.49-1.52,2.39-2.46,3.11-3.86.72-1.42.37-3.5,1.3-4.78.94-1.28,3.03-1.59,4.15-2.71s1.43-3.21,2.71-4.15c1.28-.93,3.36-.58,4.78-1.31,1.41-.72,2.34-2.61,3.86-3.11,1.49-.48,3.36.5,4.95.25,1.54-.24,3.02-1.76,4.63-1.76s3.09,1.51,4.64,1.76c1.58.25,3.46-.73,4.95-.25,1.52.5,2.46,2.39,3.86,3.11,1.41.72,3.5.38,4.78,1.31,1.28.93,1.59,3.02,2.71,4.15,1.12,1.12,3.21,1.42,4.15,2.71s.58,3.36,1.31,4.78c.72,1.41,2.62,2.34,3.11,3.86.48,1.5-.49,3.36-.25,4.95.25,1.55,1.76,3.02,1.76,4.64s-1.51,3.09-1.76,4.63c-.18,1.22.34,2.59.38,3.84Z"/>
        <path class="cls-3" d="m103.57,54.71c0,.88-.05,1.74-.14,2.6-.23,2.28-2.76,26.21-7.78,31.24-1.38,1.38-2.63,2.7-3.85,3.89-1.1,1.08-2.19,2.06-3.34,2.88-2.42,1.74-5.12,2.82-8.92,2.82h0c-4.06,0-6.87-1.23-9.41-3.18-.97-.75-1.9-1.6-2.85-2.52-1.21-1.19-2.46-2.51-3.84-3.89-2.65-2.64-4.6-10.49-5.89-17.69-.06-.34-.12-.68-.18-1.02-1.16-6.78-1.74-12.71-1.74-12.71-.07-.79-.12-1.6-.12-2.42,0-.21.01-.42.01-.63.05-1.89.32-3.73.78-5.49.02-.08.04-.16.06-.24,2.68-9.76,11.35-17.04,21.81-17.63.45-.03.91-.04,1.37-.04h0c13.27,0,24.03,10.75,24.03,24.03Z"/>
        <g>
          <path class="cls-2" d="m136.79,134.75c-13.65,14.14-32.48,23.24-53.43,24.22l-.16-33.26,21.99-15.98,13.62,3.25c8.14,1.95,14.54,8.25,16.6,16.37l1.38,5.4Z"/>
          <polygon class="cls-4" points="94.3 101.12 83.19 125.71 99.68 132.75 105.19 109.72 94.3 101.12"/>
        </g>
        <g>
          <path class="cls-2" d="m22.29,134.75c13.65,14.14,32.48,23.24,53.43,24.22l.16-33.26-21.99-15.98-13.62,3.25c-8.14,1.95-14.54,8.25-16.6,16.37l-1.38,5.4Z"/>
          <polygon class="cls-4" points="64.78 101.12 75.88 125.71 59.39 132.75 53.89 109.72 64.78 101.12"/>
        </g>
        <path class="cls-4" d="m103.56,54.08c-.05-1.79-.32-3.64-.78-5.49-.02-.08-.04-.16-.06-.24-2.68-9.76-11.35-17.04-21.8-17.63-.46-.03-.91-.04-1.38-.04h0c-.46,0-.92.01-1.38.04-10.46.59-19.13,7.87-21.8,17.63-.02.08-.04.16-.06.24-.46,1.85-.72,3.7-.78,5.49,0,.21,0,.42,0,.63,0,.82.04,1.63.12,2.43,0,0,.57,5.93,1.74,12.71h0s-1.01-24.47,8.78-24.61c6.79,0,7.3,3.69,13.38,3.69h0c6.09,0,6.59-3.69,13.38-3.69,9.79.14,8.78,24.62,8.78,24.62h0c1.17-6.79,1.74-12.72,1.74-12.72.08-.79.12-1.61.12-2.43,0-.21,0-.42-.01-.63Z"/>
        <g>
          <path class="cls-5" d="m68.09,77.7c-4.8,0-8.7-3.9-8.7-8.7s3.9-8.7,8.7-8.7,8.7,3.9,8.7,8.7-3.9,8.7-8.7,8.7Zm0-16.49c-4.29,0-7.79,3.49-7.79,7.79s3.49,7.79,7.79,7.79,7.79-3.49,7.79-7.79-3.49-7.79-7.79-7.79Z"/>
          <path class="cls-5" d="m90.98,77.7c-4.8,0-8.7-3.9-8.7-8.7s3.9-8.7,8.7-8.7,8.7,3.9,8.7,8.7-3.9,8.7-8.7,8.7Zm0-16.49c-4.29,0-7.79,3.49-7.79,7.79s3.49,7.79,7.79,7.79,7.79-3.49,7.79-7.79c0-4.29-3.49-7.79-7.79-7.79Z"/>
          <path class="cls-5" d="m83.19,69h-.91c0-1.51-1.23-2.74-2.74-2.74s-2.74,1.23-2.74,2.74h-.91c0-2.02,1.64-3.66,3.66-3.66s3.66,1.64,3.66,3.66Z"/>
        </g>
        <path class="cls-1" d="m83.41,78.32c0,1.66-1.69,3-3.78,3s-3.77-1.34-3.77-3c0-.2.02-.4.08-.58.33,1.38,1.86,2.42,3.69,2.42s3.37-1.04,3.7-2.42c.06.19.08.38.08.58Z"/>
        <path class="cls-5" d="m91.16,137.59c0,1.24-1.01,2.25-2.25,2.25s-2.25-1.01-2.25-2.25,1.01-2.25,2.25-2.25,2.25,1.01,2.25,2.25Z"/>
        <path class="cls-5" d="m91.16,149.93c0,1.24-1.01,2.25-2.25,2.25s-2.25-1.01-2.25-2.25,1.01-2.25,2.25-2.25c1.24,0,2.25,1.01,2.25,2.25Z"/>
      </g>
    </g>
  </g>
</svg>